# xmcd
# 
# Track frame offsets:
#     150
#     19038
#     35175
#     49775
#     65930
#     80699
#     96491
#     115964
#     131836
#     147258
#     161538
#     177326
#     195569
#     208666
#     225337
#     242467
#     261229
#     277166
#     292911
#     308333
# 
# Disc length: 4301
# 
# Revision: 0
# Processed by: cddbd v1.5.2PL0 Copyright (c) Steve Scherf et al.
# Submitted via: fre:ac v1.0.31
# 
DISCID=2a10cb14
DTITLE=Theory of a Deadman - Scars and Souvenirs
DYEAR=0
DGENRE=
TTITLE0=So Happy
TTITLE1=By the Way
TTITLE2=Got It Made
TTITLE3=Not Meant to Be
TTITLE4=Crutch
TTITLE5=All or Nothing
TTITLE6=Heaven (Little By Little)
TTITLE7=Little Smirk
TTITLE8=Bad Girlfriend (explicit)
TTITLE9=Hate My Life (explicit)
TTITLE10=End of the Summer
TTITLE11=Wait for Me
TTITLE12=Sacrifice
TTITLE13=Great Pretender
TTITLE14=Shadow
TTITLE15=So Happy (Acoustic)
TTITLE16=By the Way (Acoustic)
TTITLE17=Not Meant to Be (Acoustic)
TTITLE18=Bad Girlfriend
TTITLE19=Hate My Life
EXTD=
EXTT0=
EXTT1=
EXTT2=
EXTT3=
EXTT4=
EXTT5=
EXTT6=
EXTT7=
EXTT8=
EXTT9=
EXTT10=
EXTT11=
EXTT12=
EXTT13=
EXTT14=
EXTT15=
EXTT16=
EXTT17=
EXTT18=
EXTT19=
PLAYORDER=
